<?xml version="1.0" encoding="UTF-8" standalone="no"?>
<svg
   xmlns:dc="http://purl.org/dc/elements/1.1/"
   xmlns:cc="http://creativecommons.org/ns#"
   xmlns:rdf="http://www.w3.org/1999/02/22-rdf-syntax-ns#"
   xmlns:svg="http://www.w3.org/2000/svg"
   xmlns="http://www.w3.org/2000/svg"
   xmlns:sodipodi="http://sodipodi.sourceforge.net/DTD/sodipodi-0.dtd"
   xmlns:inkscape="http://www.inkscape.org/namespaces/inkscape"
   id="svg8"
   version="1.1"
   viewBox="0 0 210 297"
   height="297mm"
   width="210mm"
   sodipodi:docname="country1.svg"
   inkscape:version="0.92.3 (2405546, 2018-03-11)">
  <sodipodi:namedview
     pagecolor="#ffffff"
     bordercolor="#666666"
     borderopacity="1"
     objecttolerance="10"
     gridtolerance="10"
     guidetolerance="10"
     inkscape:pageopacity="0"
     inkscape:pageshadow="2"
     inkscape:window-width="751"
     inkscape:window-height="479"
     id="namedview27"
     showgrid="false"
     inkscape:zoom="0.2973261"
     inkscape:cx="445.6205"
     inkscape:cy="758.00501"
     inkscape:window-x="334"
     inkscape:window-y="65"
     inkscape:window-maximized="0"
     inkscape:current-layer="layer1" />
  <defs
     id="defs2" />
  <metadata
     id="metadata5">
    <rdf:RDF>
      <cc:Work
         rdf:about="">
        <dc:format>image/svg+xml</dc:format>
        <dc:type
           rdf:resource="http://purl.org/dc/dcmitype/StillImage" />
        <dc:title></dc:title>
      </cc:Work>
    </rdf:RDF>
  </metadata>
  <g
     id="layer1">
    <path
       id="country1"
       d="M 62.273798,13.96157 129.35845,40.955793 110.64958,79.977143 141.11831,105.36775 133.10022,126.48204 91.940718,123.27481 95.147952,93.34062 55.057521,91.737002 35.660988,60.200731 18.976136,53.250189 40.336225,44.136953 75.272736,46.302716 72.431574,30.444212 43.832203,25.721429 Z"
       style="fill:none;stroke:#000000;stroke-width:0.26458332px;stroke-linecap:butt;stroke-linejoin:miter;stroke-opacity:1"
       inkscape:connector-curvature="0"
       sodipodi:nodetypes="ccccccccccccccc" />
    <path
       id="country2"
       d="M 141.11831,105.36775 181.74328,101.09144 184.1487,66.880935 177.46696,24.652351 130.6948,15.832457 62.273798,13.96157 129.35845,40.955793 110.64958,79.977143 Z"
       style="fill:none;stroke:#000000;stroke-width:0.26458332px;stroke-linecap:butt;stroke-linejoin:miter;stroke-opacity:1"
       inkscape:connector-curvature="0" />
    <path
       style="fill:none;stroke:#000000;stroke-width:0.26458332px;stroke-linecap:butt;stroke-linejoin:miter;stroke-opacity:1"
       d="M 155.42161,220.23305 171.78178,185.625 222.12076,172.41101 280.0106,188.77118 299.51695,234.70551 278.12288,285.04448 211.42373,293.22458 234.70551,238.48093 179.33263,254.21186 183.73728,225.89618 Z"
       id="path4009"
       inkscape:connector-curvature="0" />
    <path
       style="fill:none;stroke:#000000;stroke-width:0.26458332px;stroke-linecap:butt;stroke-linejoin:miter;stroke-opacity:1"
       d="M 66.740693,142.16159 0,141.27171 24.916525,182.20601 -2.6696278,227.58968 72.969823,229.36943 22.246897,214.24154 21.357021,195.55415 49.83305,179.53638 29.365905,157.28948 Z"
       id="path4011"
       inkscape:connector-curvature="0" />
  </g>
</svg>
